# xmcd
#
# Track frame offsets:
#	150
#	23334
#	46791
#	69704
#	93226
#	122020
#	146620
#	174294
#	195612
#
# Disc length: 2943 seconds
#
# Revision: 1497402108
# Processed by: cddbd v1.5.2PL0 Copyright (c) Steve Scherf et al.
# Submitted via: EZCDAudioConverter 8.0.2.1
#
DISCID=6c0b7d09
DTITLE=Thành Lê - Vol 03. Quê
DYEAR=2010
DGENRE=Contemporary Pop
TTITLE0=Thành Lê - Làng tôi
TTITLE1=Thành Lê - Hà Tĩnh quê mình
TTITLE2=Thành Lê - Đăng Thuật - Tình thắm duyên quê
TTITLE3=Thành Lê - Chuyện tình lá diêu bông
TTITLE4=Thành Lê - Lời quê
TTITLE5=Thành Lê - Đăng Thuật - Vàm Cỏ Đông
TTITLE6=Thành Lê - Neo đậu bến quê
TTITLE7=Thành Lê - Làng quan họ quê tôi
TTITLE8=Thành Lê - Cô dân quân làng Đỏ
EXTD=
EXTT0=
EXTT1=
EXTT2=
EXTT3=
EXTT4=
EXTT5=
EXTT6=
EXTT7=
EXTT8=
PLAYORDER=
